<svg width="70" height="54" viewBox="0 0 70 54" fill="none" xmlns="http://www.w3.org/2000/svg">
<path d="M10.7079 0.000235562C10.706 0.000235562 10.7039 0.000235562 10.702 0.000235562C10.04 0.000235562 9.41727 0.258317 8.94707 0.727342C8.47168 1.20155 8.20983 1.83297 8.20983 2.50516V40.0661C8.20983 41.4434 9.33478 42.5667 10.7178 42.5703C16.5483 42.5842 26.3168 43.7994 33.0557 50.8515V11.543C33.0557 11.0761 32.9364 10.6374 32.7113 10.2745C27.1804 1.36724 16.5516 0.0139056 10.7079 0.000235562Z" fill="#14E0BC"/>
<path d="M61.7904 40.0661V2.50492C61.7904 1.83273 61.5286 1.20132 61.0532 0.727107C60.583 0.258081 59.9598 0 59.2985 0C59.2963 0 59.2942 0 59.2923 0C53.4488 0.0139058 42.8201 1.36724 37.2889 10.2745C37.0638 10.6374 36.9448 11.0761 36.9448 11.543V50.8513C43.6837 43.7992 53.4521 42.5839 59.2827 42.57C60.6655 42.5665 61.7904 41.4432 61.7904 40.0661Z" fill="#14E0BC"/>
<path d="M67.4955 8.66235H65.6793V40.0661C65.6793 43.5828 62.814 46.4505 59.2919 46.4592C54.3463 46.471 46.1919 47.438 40.4168 52.9039C50.4049 50.4584 60.9341 52.0481 66.9348 53.4156C67.6841 53.5862 68.4584 53.4099 69.0587 52.9315C69.6568 52.4542 70 51.7408 70 50.975V11.1668C70.0002 9.78589 68.8765 8.66235 67.4955 8.66235Z" fill="#14E0BC"/>
<path d="M4.32069 40.0661V8.66235H2.50445C1.12378 8.66235 0 9.78589 0 11.1668V50.9743C0 51.7403 0.343166 52.4535 0.94135 52.9308C1.54118 53.409 2.31472 53.586 3.06516 53.4149C9.06586 52.0472 19.5954 50.4577 29.583 52.9032C23.8081 47.4375 15.6537 46.4707 10.7082 46.4589C7.18622 46.4505 4.32069 43.5828 4.32069 40.0661Z" fill="#14E0BC"/>
</svg>
