<svg width="59" height="74" viewBox="0 0 59 74" fill="none" xmlns="http://www.w3.org/2000/svg">
<path d="M51.316 65.3281H2.16838C0.970909 65.3281 9.87044e-05 66.2988 9.87044e-05 67.4961V71.832C9.87044e-05 73.0293 0.970909 74 2.16838 74H51.316C52.5135 74 53.4843 73.0293 53.4843 71.832V67.4961C53.4843 66.2988 52.5135 65.3281 51.316 65.3281Z" fill="#14E0BC"/>
<path d="M5.78217 56.6562V60.9922H47.7022V56.6562C47.7022 55.4589 46.7314 54.4883 45.5339 54.4883H7.95045C6.75298 54.4883 5.78217 55.4589 5.78217 56.6562Z" fill="#14E0BC"/>
<path d="M1.31422 40.5826L4.99841 42.1613C4.34518 33.7327 5.75673 25.9984 9.10976 19.7148C12.616 13.1444 18.083 8.1584 25.4133 4.82724C24.9941 4.85065 24.5762 4.88173 24.1605 4.92407C19.9157 5.35695 16.0792 6.76526 12.7575 9.10985C9.07665 11.7079 6.12939 15.3975 3.99782 20.0763C1.7061 25.1067 0.361912 31.299 0.00270101 38.4817C-0.0423992 39.3872 0.480734 40.2253 1.31422 40.5826Z" fill="#14E0BC"/>
<path d="M57.0436 25.1897L44.6984 11.612L43.3451 1.86983C43.2306 1.04557 42.6543 0.359481 41.862 0.104383C41.0697 -0.150715 40.2014 0.070418 39.6274 0.67297L34.2741 6.29279C24.1713 8.95029 16.9943 14.1504 12.9359 21.7558C9.79811 27.6359 8.59067 35.0431 9.4441 43.1769C9.73364 45.9365 10.2101 48.336 10.6502 50.1523H41.9201V45.8164C41.9201 45.3646 41.7789 44.9239 41.5163 44.5562L36.341 37.3117C35.6652 36.3659 35.68 35.1054 36.3774 34.1757C37.0964 33.2173 38.3756 32.8588 39.4879 33.3036L48.5194 36.9155C50.6036 37.7493 52.9467 37.1316 54.349 35.3789L57.2506 31.7524C58.8127 29.8 58.7257 27.0398 57.0436 25.1897ZM37.5836 23.2695C36.3861 23.2695 35.4153 22.2988 35.4153 21.1015C35.4153 19.9042 36.3861 18.9335 37.5836 18.9335C38.781 18.9335 39.7519 19.9042 39.7519 21.1015C39.7519 22.2989 38.781 23.2695 37.5836 23.2695Z" fill="#14E0BC"/>
</svg>
