<svg width="79" height="65" viewBox="0 0 79 65" fill="none" xmlns="http://www.w3.org/2000/svg">
<path fill-rule="evenodd" clip-rule="evenodd" d="M40.3129 0.0171709C33.992 -0.193328 27.6059 1.53118 22.0924 5.21145C15.9 9.34928 11.5724 15.4597 9.57909 22.2905C9.02864 22.2233 8.36947 22.2529 7.58677 22.4743C4.66449 23.3035 2.46661 25.698 1.47835 27.807C0.196582 30.5553 -0.343995 34.1901 0.22623 37.9425C0.792501 41.6831 2.37272 44.7664 4.34924 46.6807C6.33168 48.5959 8.57008 49.2185 10.7937 48.7511C14.1043 48.0445 15.7458 47.5158 15.2823 44.4314L13.038 29.4801C13.4906 21.3882 17.6798 13.7707 24.6866 9.0864C34.0651 2.82184 46.361 3.22308 55.3067 10.0905C61.5298 14.8618 65.1428 22.0108 65.5599 29.5156L63.9905 39.9744C60.4901 49.5535 51.8123 56.1887 41.7706 57.1305H35.084C33.3585 57.1305 31.969 58.52 31.969 60.2435V61.886C31.969 63.6105 33.3585 65 35.084 65H43.5148C45.2394 65 46.6229 63.6105 46.6229 61.886V61.0272C54.1949 59.1792 60.8044 54.5255 65.1083 48.0356L67.8092 48.7521C70.007 49.3223 72.2721 48.5959 74.2536 46.6817C76.2301 44.7664 77.8093 41.6841 78.3766 37.9435C78.9488 34.1911 78.3924 30.5622 77.1255 27.8079C75.8536 25.0537 73.9591 23.3045 71.7721 22.6769C70.856 22.413 69.8618 22.3162 69.0089 22.2905C67.2063 16.1139 63.4954 10.4966 58.147 6.39538C52.8885 2.36033 46.6338 0.224705 40.3129 0.0171709Z" fill="#14E0BC"/>
<path fill-rule="evenodd" clip-rule="evenodd" d="M50.1806 26.9155C52.4092 26.9155 54.2157 28.7221 54.2206 30.9565C54.2157 33.185 52.4092 34.9965 50.1806 34.9965C47.9462 34.9965 46.1347 33.185 46.1347 30.9565C46.1347 28.7231 47.9472 26.9155 50.1806 26.9155ZM39.2999 26.9155C41.5334 26.9155 43.3399 28.7221 43.3399 30.9565C43.3399 33.185 41.5334 34.9965 39.2999 34.9965C37.0645 34.9965 35.258 33.185 35.258 30.9565C35.258 28.7231 37.0645 26.9155 39.2999 26.9155ZM28.4232 26.9155C30.6517 26.9155 32.4632 28.7221 32.4632 30.9565C32.4632 33.185 30.6517 34.9965 28.4232 34.9965C26.1897 34.9965 24.3822 33.185 24.3822 30.9565C24.3822 28.7231 26.1897 26.9155 28.4232 26.9155ZM39.2999 9.55978C27.4507 9.55978 17.9022 18.794 17.9022 30.9565C17.9022 36.7981 20.1109 41.9608 23.7092 45.7487L22.4324 51.4727C22.0114 53.3564 23.3178 54.6233 25.0107 53.6805L30.6003 50.5626C33.2567 51.7158 36.1948 52.3533 39.2999 52.3533C51.1531 52.3533 60.6957 43.1249 60.6957 30.9565C60.6957 18.794 51.1531 9.55978 39.2999 9.55978Z" fill="#14E0BC"/>
</svg>
