<svg width="71" height="70" viewBox="0 0 71 70" fill="none" xmlns="http://www.w3.org/2000/svg">
<path d="M55.1765 58.3333C52.877 58.3333 50.9045 59.7547 50.0883 61.7647H45.2941V65.8824H50.0883C50.9045 67.8923 52.877 69.3137 55.1765 69.3137C58.2038 69.3137 60.6667 66.8508 60.6667 63.8235C60.6667 60.7962 58.2038 58.3333 55.1765 58.3333Z" fill="#14E0BC"/>
<path d="M64.7843 46.6667C63.8819 46.6667 63.0305 46.8868 62.2786 47.2743L57.1808 43.0261C56.8108 42.7178 56.3444 42.549 55.8627 42.549H45.2941V46.6667H55.1173L59.587 50.3915C59.3982 50.9459 59.2941 51.5392 59.2941 52.1569C59.2941 55.1842 61.757 57.6471 64.7843 57.6471C67.8116 57.6471 70.2745 55.1842 70.2745 52.1569C70.2745 49.1296 67.8116 46.6667 64.7843 46.6667Z" fill="#14E0BC"/>
<path d="M64.7843 29.5098C62.4849 29.5098 60.5124 30.9312 59.6961 32.9412H45.2941V37.0588H59.6961C60.5124 39.0688 62.4849 40.4902 64.7843 40.4902C67.8116 40.4902 70.2745 38.0273 70.2745 35C70.2745 31.9727 67.8116 29.5098 64.7843 29.5098Z" fill="#14E0BC"/>
<path d="M57.1808 26.9737L62.2786 22.7256C63.0305 23.1132 63.8819 23.3333 64.7843 23.3333C67.8116 23.3333 70.2745 20.8704 70.2745 17.8431C70.2745 14.8158 67.8116 12.3529 64.7843 12.3529C61.757 12.3529 59.2941 14.8158 59.2941 17.8431C59.2941 18.4608 59.3982 19.0541 59.587 19.6085L55.1173 23.3333H45.2941V27.451H55.8627C56.3444 27.451 56.8108 27.2822 57.1808 26.9737Z" fill="#14E0BC"/>
<path d="M55.1765 11.6667C58.2038 11.6667 60.6667 9.20376 60.6667 6.17647C60.6667 3.14918 58.2038 0.686275 55.1765 0.686275C52.877 0.686275 50.9045 2.10769 50.0883 4.11765H45.2941V8.23529H50.0883C50.9045 10.2453 52.877 11.6667 55.1765 11.6667Z" fill="#14E0BC"/>
<path d="M20.5882 35C20.5882 42.9466 27.0534 49.4118 35 49.4118C37.2091 49.4118 39.3034 48.9115 41.1765 48.0193V21.9807C39.3034 21.0885 37.2091 20.5882 35 20.5882C27.0534 20.5882 20.5882 27.0534 20.5882 35Z" fill="#14E0BC"/>
<path d="M39.1176 0H30.8824C29.7453 0 28.8235 0.921804 28.8235 2.05882V4.73873C24.9602 5.52575 21.2631 7.05737 17.97 9.23506L16.0745 7.33971C15.2704 6.53567 13.9669 6.53567 13.1629 7.33971L7.33971 13.1629C6.53567 13.9668 6.53567 15.2704 7.33971 16.0745L9.23506 17.97C7.05737 21.2631 5.52575 24.9602 4.73873 28.8235H2.05882C0.921804 28.8235 0 29.7453 0 30.8824V39.1176C0 40.2547 0.921804 41.1765 2.05882 41.1765H4.73873C5.52575 45.0398 7.05737 48.7369 9.23506 52.0302L7.33957 53.9257C6.95347 54.3118 6.73661 54.8354 6.73661 55.3814C6.73661 55.9274 6.95347 56.4509 7.33957 56.837L13.1629 62.6603C13.9669 63.4643 15.2704 63.4643 16.0745 62.6603L17.97 60.7649C21.2631 62.9426 24.9602 64.4741 28.8235 65.2613V67.9412C28.8235 69.0782 29.7453 70 30.8824 70H39.1176C40.2547 70 41.1765 69.0782 41.1765 67.9412V52.4695C39.2436 53.155 37.1649 53.5294 35 53.5294C24.7829 53.5294 16.4706 45.2171 16.4706 35C16.4706 24.7829 24.7829 16.4706 35 16.4706C37.1649 16.4706 39.2436 16.845 41.1765 17.5305V2.05882C41.1765 0.921804 40.2547 0 39.1176 0Z" fill="#14E0BC"/>
</svg>
