<svg width="70" height="74" viewBox="0 0 70 74" fill="none" xmlns="http://www.w3.org/2000/svg">
<path d="M37.1918 36.3727V52.889L51.6528 44.631V28.1147L37.1918 36.3727Z" fill="#14E0BC"/>
<path d="M20.539 24.3596L35 32.6178L49.461 24.3596L35 16.1014L20.539 24.3596Z" fill="#14E0BC"/>
<path d="M32.8082 36.3727L18.3472 28.1147V44.631L32.8082 52.889V36.3727Z" fill="#14E0BC"/>
<path d="M63.5999 12.423C62.0238 12.423 60.58 12.9906 59.4634 13.9285L35.0732 0L10.595 13.9786C9.47075 13.011 8.00397 12.423 6.40014 12.423C2.871 12.423 0 15.2628 0 18.7535C0 21.5353 1.82433 23.9021 4.35122 24.7492V52.6325L28.5814 66.4695C28.5058 66.8583 28.4647 67.2591 28.4647 67.6694C28.4647 71.16 31.3357 73.9997 34.8648 73.9997C38.3938 73.9997 41.2648 71.16 41.2648 67.6694C41.2648 67.3347 41.2379 67.006 41.1871 66.6851L65.795 52.6324V24.7002C68.2461 23.8122 70 21.4817 70 18.7535C70 15.2629 67.1289 12.423 63.5999 12.423ZM61.4047 50.1255L39.0534 62.8895C37.9299 61.925 36.4656 61.3392 34.8647 61.3392C33.3433 61.3392 31.9449 61.8679 30.8453 62.7481L8.74174 50.1255V24.6432C11.1155 23.7166 12.8001 21.4268 12.8001 18.7535C12.8001 18.4215 12.7738 18.0956 12.7239 17.7773L35.0732 5.01437L57.2897 17.7015C57.2316 18.0439 57.1997 18.3949 57.1997 18.7535C57.1997 21.4817 58.9536 23.8122 61.4047 24.7002V50.1255Z" fill="#14E0BC"/>
</svg>
