<svg width="67" height="74" viewBox="0 0 67 74" fill="none" xmlns="http://www.w3.org/2000/svg">
<path d="M65.1729 10.3567C65.04 9.40258 64.3535 8.61775 63.4255 8.3598L33.6835 0.0885104C33.2595 -0.0295035 32.8116 -0.0295035 32.3872 0.0885104L2.64517 8.3598C1.71718 8.61775 1.03071 9.40225 0.89786 10.3567C0.725353 11.5971 -3.21006 40.9058 6.884 55.486C16.9661 70.0488 31.8394 73.7807 32.4675 73.9326C32.6542 73.9778 32.8445 74 33.0354 74C33.2262 74 33.4165 73.9774 33.6032 73.9326C34.2316 73.7807 49.1049 70.0488 59.1867 55.486C69.2808 40.9061 65.3454 11.5974 65.1729 10.3567ZM52.2152 27.4674L31.9281 47.7545C31.456 48.2266 30.8369 48.4629 30.2182 48.4629C29.5994 48.4629 28.9803 48.2269 28.5083 47.7545L15.9649 35.2112C15.5113 34.7578 15.2565 34.1426 15.2565 33.5013C15.2565 32.8599 15.5116 32.2447 15.9649 31.7914L18.4555 29.3008C19.3999 28.3567 20.9312 28.3564 21.8753 29.3008L30.2182 37.6437L46.3048 21.5567C46.7582 21.103 47.3734 20.8483 48.0147 20.8483C48.6561 20.8483 49.2713 21.103 49.7246 21.5567L52.2152 24.0473C53.1596 24.9917 53.1596 26.523 52.2152 27.4674Z" fill="#14E0BC"/>
</svg>
